<svg width="406" height="306" viewBox="0 0 406 306" fill="none" xmlns="http://www.w3.org/2000/svg">
<g clip-path="url(#clip0)">
<path opacity="0.18" d="M2.35577 156.077C1.18252 192.988 29.8899 228.577 66.214 235.225C89.7814 239.546 115.649 233.158 136.981 244.006C150.12 250.682 159.534 263.011 172.114 270.693C187.99 280.377 207.497 281.867 226.12 281.029C245.851 280.153 266.774 276.373 281.179 262.88C298.303 246.827 302.223 220.932 316.982 202.682C329.32 187.42 349.107 177.54 355.792 159.132C361.938 142.175 354.461 122.621 341.751 109.827C329.04 97.0332 311.954 89.6865 295.1 83.215C278.246 76.7435 261.066 70.7096 246.559 59.75C236.112 51.8632 227.545 40.6894 215.608 34.9069C188.148 21.6101 143.853 20.7255 117.511 36.3875C83.3099 56.7331 71.7451 104.194 36.3241 122.351C24.9175 128.199 10.5126 131.588 4.96299 143.153C3.04482 147.138 2.49544 151.655 2.35577 156.077" fill="#68E1FD"/>
<path d="M403.924 182.522C403.925 186.285 403.185 190.011 401.745 193.488C400.306 196.965 398.195 200.124 395.534 202.784C392.874 205.445 389.715 207.556 386.238 208.995C382.761 210.435 379.035 211.175 375.272 211.174H30.7466C23.1477 211.174 15.8601 208.155 10.4869 202.782C5.11372 197.409 2.09509 190.121 2.09509 182.522" fill="white"/>
<path d="M2.06714 182.522C2.06714 174.923 5.08577 167.636 10.459 162.262C15.8322 156.889 23.1198 153.871 30.7186 153.871H375.244C382.843 153.871 390.131 156.889 395.504 162.262C400.877 167.636 403.896 174.923 403.896 182.522" fill="white"/>
<path d="M406 182.522C406 190.672 402.763 198.487 397 204.25C391.237 210.013 383.422 213.25 375.272 213.25H30.7466C22.5971 213.25 14.7813 210.013 9.01868 204.25C3.25608 198.487 0.0186768 190.672 0.0186768 182.522" fill="#68E1FD"/>
<path d="M0 182.522C0 174.373 3.2374 166.557 9.00001 160.794C14.7626 155.032 22.5784 151.794 30.7279 151.794H375.253C383.403 151.794 391.219 155.032 396.981 160.794C402.744 166.557 405.981 174.373 405.981 182.522" fill="#68E1FD"/>
<path d="M401.856 182.522C401.849 175.475 399.045 168.718 394.061 163.736C389.077 158.753 382.319 155.952 375.272 155.947H30.7465C27.2142 155.881 23.7041 156.52 20.4214 157.826C17.1387 159.132 14.1492 161.079 11.6278 163.554C9.10631 166.028 7.10342 168.981 5.73615 172.239C4.36889 175.496 3.66467 178.994 3.66467 182.527C3.66467 186.06 4.36889 189.557 5.73615 192.815C7.10342 196.073 9.10631 199.025 11.6278 201.5C14.1492 203.975 17.1387 205.922 20.4214 207.228C23.7041 208.534 27.2142 209.173 30.7465 209.106H375.272C382.32 209.099 389.078 206.296 394.062 201.312C399.046 196.328 401.849 189.57 401.856 182.522" fill="white"/>
<path d="M329.86 156.422C329.515 156.848 329.079 157.192 328.584 157.428C324.86 159.588 321.005 161.767 316.824 162.903C313.674 163.68 310.448 164.111 307.205 164.188C300.119 164.511 293.019 164.396 285.947 163.843C272.548 162.791 259.307 160.174 245.907 159.187C232.648 158.256 219.314 158.899 206.036 158.07C204.332 157.958 202.311 157.67 201.51 156.208C201.266 155.685 201.146 155.113 201.16 154.536C201.175 153.959 201.323 153.393 201.594 152.884C203.382 149.159 208.317 148.572 212.433 148.461C241.242 147.678 270.08 146.906 298.88 147.874C303.937 148.051 309.039 148.284 313.937 149.522C317.575 150.423 321.262 151.11 324.981 151.58C326.917 151.776 331.797 153.61 329.86 156.422Z" fill="url(#paint0_linear)"/>
<path d="M294.216 160H30.1041C17.9727 160 8.13831 169.832 8.13831 181.961C8.13831 194.09 17.9727 203.922 30.1041 203.922H294.216C306.347 203.922 316.181 194.09 316.181 181.961C316.181 169.832 306.347 160 294.216 160Z" fill="#68E1FD"/>
<path d="M171.024 164.877C169.288 164.877 167.576 165.282 166.024 166.059C165.088 166.723 164.31 167.586 163.746 168.585C163.183 169.585 162.848 170.697 162.765 171.842C162.616 174.129 162.654 176.424 162.877 178.704C163.128 185.381 161.378 191.945 159.655 198.398C158.24 203.669 156.545 209.349 152.122 212.542C151.754 212.885 151.302 213.126 150.813 213.242C150.323 213.358 149.812 213.345 149.329 213.203C148.397 212.784 148.118 211.667 147.941 210.689C145.073 194.469 150.93 177.997 150.93 161.525C150.93 158.284 150.93 154.504 153.5 152.52C155.092 151.301 157.225 151.152 159.227 151.049L189.796 149.55C194.582 149.317 200.784 148.619 205.309 150.602C210.98 153.107 202.87 156.739 199.89 158.228C191.007 162.707 180.857 164.104 171.024 164.877Z" fill="url(#paint1_linear)"/>
<path d="M205.71 142.892C205.142 146.775 204.034 150.835 201.11 153.452C198.903 155.435 195.933 156.32 193.037 156.999C182.785 159.397 172.19 159.964 161.741 158.675C160.26 158.498 158.435 158.415 157.588 159.606C157.243 160.246 157.076 160.966 157.104 161.692C156.306 177.494 154.703 193.245 152.299 208.883C151.889 211.472 151.433 214.153 149.934 216.332C146.488 221.258 139.365 221.342 133.369 220.932C132.639 220.972 131.921 220.736 131.357 220.271C130.277 219.098 131.627 217.347 132.754 216.23C137.503 211.574 139.579 204.73 140.017 198.082C140.455 191.433 139.44 184.785 138.881 178.136C137.767 164.855 138.506 151.482 141.078 138.404C141.628 135.611 142.317 132.724 144.226 130.629C145.045 129.698 164.348 128.525 165.428 127.994C164.432 127.063 151.237 119.437 150.269 118.44C145.734 126.411 133.387 144.904 130.147 153.489C120.216 154.235 110.236 154.007 100.35 152.809C99.2419 150.016 112.455 144.857 115.388 145.09C120.91 129.447 128.424 111.261 138.285 97.8899C141.693 93.2341 145.734 88.5039 151.386 87.2375C158.789 85.5708 165.922 90.45 171.937 95.0685C188.912 108.03 209.341 118.347 205.71 142.892Z" fill="#3E3E54"/>
<path d="M250.079 99.9384C254.399 98.0109 259.037 95.8693 263.683 96.7911C267.203 97.4988 270.136 99.8732 272.855 102.22C276.108 105.007 279.305 107.856 282.446 110.768C285.239 113.366 288.21 116.42 288.331 120.247C288.433 123.478 292.446 152.427 289.262 152.642C282.269 153.107 236.819 152.967 201.147 153.433C197.497 153.48 198.409 154.364 195.607 152.046C187.757 145.528 187.906 120.88 197.599 115.656C204.639 111.866 214.881 111.876 222.591 109.771C232.043 107.201 240.805 103.048 250.079 99.9384Z" fill="white"/>
<path d="M236.652 104.864C230.516 111.168 223.811 119.381 221.847 127.947C221.157 130.955 225.571 139.075 268.125 130.983C269.363 130.741 276.021 122.37 275.462 120.135C274.903 117.9 259.977 119.074 257.705 118.72C256.653 118.552 255.582 118.766 254.539 118.608C253.496 118.45 246.643 121.159 246.634 120.098C246.634 118.776 253.934 114.669 255.191 114.25C261.402 112.202 279.662 110.693 264.503 100.283C256.01 94.5005 242.723 98.6721 236.652 104.864Z" fill="url(#paint2_linear)"/>
<path d="M268.348 140.769C268.058 142.304 268.196 143.889 268.749 145.351C269.565 146.816 270.809 147.999 272.315 148.74C282.111 154.504 294.206 154.131 305.557 153.582C307.969 153.461 321.992 153.666 324.18 152.651C328.24 150.789 332.113 144.838 327.793 135.518C325.595 130.666 313.686 113.785 312.298 108.598C308.741 107.406 304.514 108.086 303.676 111.745C302.838 115.405 314.598 134.698 312.298 137.51C307.429 143.46 297.028 128.199 287.008 116.755C281.291 110.246 269.214 133.665 268.348 140.769Z" fill="white"/>
<path d="M277.622 113.533C276.508 114.473 275.563 115.598 274.829 116.857C274.468 117.488 274.27 118.198 274.25 118.925C274.231 119.651 274.391 120.37 274.717 121.02C275.751 122.761 275.397 126.783 287.52 123.05C288.591 122.724 292.288 114.464 292.288 113.338C292.378 111.322 291.744 109.34 290.5 107.751C285.947 102.508 280.695 110.581 277.622 113.533Z" fill="url(#paint3_linear)"/>
<path d="M274.456 121.858L278.181 119.576C278.26 119.522 278.348 119.484 278.442 119.465C278.623 119.451 278.804 119.5 278.954 119.604C280.477 120.358 282.184 120.66 283.874 120.475C285.563 120.29 287.164 119.626 288.489 118.561C286.999 118.394 285.779 117.37 284.578 116.476C283.18 115.43 281.701 114.495 280.155 113.682C279.803 113.464 279.404 113.333 278.991 113.3C278.664 113.336 278.347 113.437 278.059 113.597C277.772 113.757 277.519 113.973 277.315 114.232C275.882 115.652 274.776 117.368 274.075 119.26" fill="url(#paint4_linear)"/>
<path d="M236.419 99.5101C230.283 105.805 223.578 114.017 221.614 122.584C220.925 125.592 218.113 136.551 260.675 128.478C261.914 128.245 261.662 126.169 261.849 124.921C262.34 122.667 262.381 120.338 261.97 118.068C261.411 115.833 259.744 113.71 257.472 113.356C256.42 113.189 255.349 113.403 254.306 113.245C253.263 113.086 246.447 115.768 246.447 114.734C246.447 113.412 253.748 109.306 255.005 108.896C261.216 106.838 279.475 105.33 264.316 94.9288C255.759 89.1371 242.453 93.3086 236.419 99.5101Z" fill="white"/>
<path d="M236.419 99.5101C230.283 105.805 223.578 114.017 221.614 122.584C220.925 125.592 218.113 136.551 260.675 128.478C261.914 128.245 261.662 126.169 261.849 124.921C262.34 122.667 262.381 120.338 261.97 118.068C261.411 115.833 259.744 113.71 257.472 113.356C256.42 113.189 255.349 113.403 254.306 113.245C253.263 113.086 246.447 115.768 246.447 114.734C246.447 113.412 253.748 109.306 255.005 108.896C261.216 106.838 279.475 105.33 264.316 94.9288C255.759 89.1371 242.453 93.3086 236.419 99.5101Z" fill="white"/>
<path d="M307.773 93.29C309.253 93.3738 310.175 95.0313 310.241 96.5118C310.306 97.9923 309.812 99.4636 309.831 100.953C309.913 102.198 310.163 103.426 310.576 104.604C311.228 106.848 311.786 109.827 309.598 111.447C308.946 111.868 308.196 112.113 307.421 112.159C306.646 112.205 305.872 112.049 305.175 111.708C300.612 109.846 301.106 105.693 303.313 102.173C303.834 101.41 307.773 93.29 307.773 93.29Z" fill="url(#paint5_linear)"/>
<path d="M276.244 105.311C276.03 108.896 276.44 112.649 278.479 115.684C280.518 118.72 284.541 120.787 288.237 119.874C290.649 119.269 292.549 117.574 294.253 115.87C299.989 110.135 304.998 103.235 305.818 95.3851C306.186 93.0209 305.791 90.6008 304.691 88.476C303.406 86.2785 301.106 84.7514 298.741 83.5968C296.236 82.2588 293.474 81.4715 290.64 81.2875C288.12 81.205 285.639 81.9327 283.563 83.364C281.701 84.6676 281.245 86.6137 280.453 88.6622C278.349 94.0536 276.561 99.5939 276.244 105.311Z" fill="url(#paint6_linear)"/>
<path d="M267.687 107.676L274.484 97.6943C274.665 97.4279 274.899 97.2019 275.172 97.0306C275.445 96.8593 275.75 96.7465 276.069 96.6992C276.387 96.652 276.712 96.6713 277.023 96.756C277.334 96.8408 277.623 96.9891 277.874 97.1915L284.392 102.48C284.844 102.847 285.143 103.368 285.233 103.942C285.322 104.517 285.195 105.104 284.876 105.591L271.84 125.266C271.654 125.544 271.411 125.779 271.127 125.955C270.843 126.131 270.524 126.245 270.193 126.288C269.861 126.331 269.524 126.303 269.205 126.205C268.885 126.108 268.59 125.943 268.339 125.722L264.614 122.407C264.284 122.115 264.043 121.735 263.921 121.311C263.799 120.887 263.8 120.437 263.925 120.014L267.37 108.319C267.443 108.09 267.55 107.873 267.687 107.676Z" fill="#3E3E54"/>
<path d="M266.346 107.676L273.144 97.6943C273.324 97.4279 273.559 97.2019 273.831 97.0306C274.104 96.8593 274.409 96.7465 274.728 96.6992C275.046 96.652 275.371 96.6713 275.682 96.756C275.993 96.8408 276.282 96.9891 276.533 97.1915L283.051 102.48C283.503 102.847 283.802 103.368 283.892 103.942C283.981 104.517 283.854 105.104 283.535 105.591L270.499 125.266C270.313 125.544 270.07 125.779 269.786 125.955C269.502 126.131 269.183 126.245 268.852 126.288C268.52 126.331 268.184 126.303 267.864 126.205C267.544 126.108 267.249 125.943 266.998 125.722L263.273 122.407C262.943 122.115 262.702 121.735 262.58 121.311C262.458 120.887 262.46 120.437 262.584 120.014L266.002 108.319C266.083 108.088 266.199 107.872 266.346 107.676Z" fill="#3E3E54"/>
<path d="M259.055 113.561C260.427 111.299 261.935 109.122 263.571 107.043C264.074 106.397 264.709 105.867 265.434 105.488C265.795 105.301 266.199 105.208 266.606 105.22C267.013 105.231 267.411 105.346 267.762 105.553C267.848 105.606 267.916 105.684 267.957 105.777C267.975 105.889 267.955 106.003 267.901 106.103C267.629 106.78 267.249 107.409 266.775 107.965C266.447 108.292 266.154 108.65 265.899 109.036C265.775 109.231 265.702 109.454 265.686 109.685C265.67 109.916 265.711 110.147 265.806 110.358C265.949 110.574 266.133 110.761 266.346 110.907L268.786 112.835C269.456 113.402 270.183 113.898 270.955 114.315C271.887 114.8 273.004 115.088 273.628 115.945C274.633 117.323 273.749 118.738 273.469 120.163C273.406 120.819 273.176 121.449 272.801 121.991C272.426 122.534 271.919 122.972 271.328 123.264C269.026 124.633 266.506 125.596 263.879 126.113C261.951 126.495 259.819 126.597 258.171 125.536C257.545 125.149 257.006 124.637 256.587 124.034C256.167 123.43 255.876 122.746 255.731 122.025C255.736 121.414 255.808 120.805 255.945 120.21C255.852 119.435 255.919 118.649 256.141 117.9C256.561 117.061 257.084 116.276 257.696 115.563C258.161 114.883 258.608 114.232 259.055 113.561Z" fill="url(#paint7_linear)"/>
<path d="M278.563 82.4421C277.038 84.3392 276.328 86.7637 276.589 89.1836C276.599 89.4049 276.667 89.6197 276.784 89.8075C277.021 90.0344 277.332 90.1669 277.66 90.1799C280.939 90.6638 284.253 90.8694 287.567 90.7945C287.157 91.8094 287.93 92.9361 288.88 93.4762C289.83 94.0163 290.938 94.1746 291.906 94.6681C292.552 94.9983 293.12 95.4622 293.573 96.0289C294.026 96.5956 294.353 97.2522 294.532 97.955C294.728 98.7465 294.737 99.5659 294.932 100.348C295.001 100.746 295.163 101.121 295.404 101.445C295.645 101.768 295.959 102.031 296.32 102.21C296.757 102.369 297.298 102.397 297.53 102.797C297.636 103.037 297.669 103.302 297.623 103.561C297.427 105.442 296.992 107.291 296.329 109.064C298.294 107.956 297.81 104.408 299.914 103.542C300.437 103.973 300.812 104.556 300.989 105.21C301.166 105.864 301.135 106.556 300.901 107.192C300.4 108.455 299.551 109.549 298.452 110.349C301.441 107.788 303.248 104.147 304.97 100.609C305.836 98.8396 306.693 96.7166 305.743 95.0219C305.443 94.6109 305.195 94.1635 305.007 93.6904C304.93 93.2575 304.946 92.813 305.054 92.3868C305.385 90.6631 305.302 88.8856 304.812 87.2003C304.371 85.9774 303.698 84.8516 302.829 83.8854C301.347 82.2195 299.538 80.8768 297.515 79.9412C295.491 79.0055 293.297 78.4971 291.068 78.4474C288.861 78.3823 286.831 79.0713 284.69 79.2762C283.507 79.3609 282.354 79.6853 281.301 80.2295C280.248 80.7738 279.316 81.5265 278.563 82.4421Z" fill="#3E3E54"/>
<path d="M193.093 149.401C193.093 149.401 274.848 143.181 280.444 143.814C286.04 144.447 299.942 153.601 299.942 153.601L197.096 154.373C195.661 152.8 194.324 151.139 193.093 149.401V149.401Z" fill="url(#paint8_linear)"/>
<path d="M60.116 188H63.194V180.404L66.038 188H68.522L71.348 180.422V188H74.426V175.364H70.808L67.298 184.112L63.752 175.364H60.116V188ZM89.0774 181.646C89.0774 177.848 86.2154 175.184 82.6154 175.184C79.0334 175.184 76.1174 177.848 76.1174 181.646C76.1174 185.444 79.0334 188.126 82.6154 188.126C86.1974 188.126 89.0774 185.444 89.0774 181.646ZM79.2674 181.646C79.2674 179.396 80.5634 177.974 82.6154 177.974C84.6314 177.974 85.9454 179.396 85.9454 181.646C85.9454 183.86 84.6314 185.318 82.6154 185.318C80.5634 185.318 79.2674 183.86 79.2674 181.646ZM98.6558 188H101.734V175.364H98.6558V180.314H93.8678V175.364H90.7898V188H93.8678V182.798H98.6558V188ZM116.394 181.646C116.394 177.848 113.532 175.184 109.932 175.184C106.35 175.184 103.434 177.848 103.434 181.646C103.434 185.444 106.35 188.126 109.932 188.126C113.514 188.126 116.394 185.444 116.394 181.646ZM106.584 181.646C106.584 179.396 107.88 177.974 109.932 177.974C111.948 177.974 113.262 179.396 113.262 181.646C113.262 183.86 111.948 185.318 109.932 185.318C107.88 185.318 106.584 183.86 106.584 181.646ZM126.332 175.364V183.194L121.184 175.364H118.106V188H121.184V180.206L126.332 188H129.41V175.364H126.332Z" fill="white"/>
<path d="M173.116 188H176.194V180.404L179.038 188H181.522L184.348 180.422V188H187.426V175.364H183.808L180.298 184.112L176.752 175.364H173.116V188ZM197.379 175.364H189.639V188H197.379V185.534H192.717V182.762H196.839V180.386H192.717V177.83H197.379V175.364ZM207.604 175.364V183.194L202.456 175.364H199.378V188H202.456V180.206L207.604 188H210.682V175.364H207.604ZM212.859 182.906C212.859 186.398 215.145 188.126 218.079 188.126C220.995 188.126 223.443 186.398 223.443 182.906V175.364H220.365V182.924C220.365 184.418 219.591 185.282 218.133 185.282C216.675 185.282 215.937 184.418 215.937 182.924V175.364H212.859V182.906ZM233.83 175.364V183.194L228.682 175.364H225.604V188H228.682V180.206L233.83 188H236.908V175.364H233.83ZM245.043 175.22C241.263 175.22 238.617 177.884 238.617 181.664C238.617 185.444 241.281 188.09 245.061 188.09C248.391 188.09 250.497 185.912 251.145 183.734V180.872H244.449V183.14H248.355C247.887 184.562 246.825 185.372 245.295 185.372C243.081 185.372 241.749 184.004 241.749 181.664C241.749 179.468 243.063 178.064 245.043 178.064C246.195 178.064 247.059 178.514 247.527 179.36H250.929C250.263 176.768 248.067 175.22 245.043 175.22ZM258.754 175.22C254.974 175.22 252.328 177.884 252.328 181.664C252.328 185.444 254.992 188.09 258.772 188.09C262.102 188.09 264.208 185.912 264.856 183.734V180.872H258.16V183.14H262.066C261.598 184.562 260.536 185.372 259.006 185.372C256.792 185.372 255.46 184.004 255.46 181.664C255.46 179.468 256.774 178.064 258.754 178.064C259.906 178.064 260.77 178.514 261.238 179.36H264.64C263.974 176.768 261.778 175.22 258.754 175.22ZM266.507 182.906C266.507 186.398 268.793 188.126 271.727 188.126C274.643 188.126 277.091 186.398 277.091 182.906V175.364H274.013V182.924C274.013 184.418 273.239 185.282 271.781 185.282C270.323 185.282 269.585 184.418 269.585 182.924V175.364H266.507V182.906Z" fill="white"/>
</g>
<defs>
<linearGradient id="paint0_linear" x1="242.63" y1="192.085" x2="331.843" y2="47.2353" gradientUnits="userSpaceOnUse">
<stop stop-opacity="0"/>
<stop offset="0.99"/>
</linearGradient>
<linearGradient id="paint1_linear" x1="14899" y1="16116.2" x2="8555.63" y2="11544.1" gradientUnits="userSpaceOnUse">
<stop stop-opacity="0"/>
<stop offset="0.99"/>
</linearGradient>
<linearGradient id="paint2_linear" x1="16626.1" y1="4253.93" x2="13179.6" y2="11251.4" gradientUnits="userSpaceOnUse">
<stop stop-opacity="0"/>
<stop offset="0.99"/>
</linearGradient>
<linearGradient id="paint3_linear" x1="287.26" y1="112.22" x2="277.008" y2="125.275" gradientUnits="userSpaceOnUse">
<stop stop-color="#E5C5D5"/>
<stop offset="0.42" stop-color="#EAD4D1"/>
<stop offset="1" stop-color="#F0E9CB"/>
</linearGradient>
<linearGradient id="paint4_linear" x1="4712.35" y1="1481.35" x2="4773.77" y2="1194.28" gradientUnits="userSpaceOnUse">
<stop stop-opacity="0"/>
<stop offset="0.99"/>
</linearGradient>
<linearGradient id="paint5_linear" x1="3470.65" y1="2547.07" x2="3567.05" y2="2547.07" gradientUnits="userSpaceOnUse">
<stop stop-color="#E5C5D5"/>
<stop offset="0.42" stop-color="#EAD4D1"/>
<stop offset="1" stop-color="#F0E9CB"/>
</linearGradient>
<linearGradient id="paint6_linear" x1="9530.44" y1="4986.17" x2="10034.5" y2="5046.78" gradientUnits="userSpaceOnUse">
<stop stop-color="#E5C5D5"/>
<stop offset="0.42" stop-color="#EAD4D1"/>
<stop offset="1" stop-color="#F0E9CB"/>
</linearGradient>
<linearGradient id="paint7_linear" x1="5488.3" y1="3152.12" x2="5851.2" y2="3152.12" gradientUnits="userSpaceOnUse">
<stop stop-color="#E5C5D5"/>
<stop offset="0.42" stop-color="#EAD4D1"/>
<stop offset="1" stop-color="#F0E9CB"/>
</linearGradient>
<linearGradient id="paint8_linear" x1="29537.2" y1="1829.67" x2="29539" y2="2796.2" gradientUnits="userSpaceOnUse">
<stop stop-opacity="0"/>
<stop offset="0.99"/>
</linearGradient>
<clipPath id="clip0">
<rect width="406" height="306" fill="white"/>
</clipPath>
</defs>
</svg>
